<svg version="1" xmlns="http://www.w3.org/2000/svg" width="346.667" height="346.667" viewBox="0 0 260.000000 260.000000"><path d="M106.1 17.7c-5.6 1.1-19.7 6.7-27.4 10.9-21.8 11.9-41.3 33.8-49.9 55.8-6.4 16.3-7.8 21.5-8.1 28.8-.2 6.3 0 7.2 2.2 8.9 4 3.3 19.2 2.1 38.1-3.1 5.8-1.5 14.4-3.6 19.3-4.5 13.4-2.7 24.6-10.5 31.1-21.8 4-6.9 11.4-38.1 13.4-56 1.7-15.1-.9-19.8-10.5-19.6-3.2.1-6.9.4-8.2.6zM154.8 26.8c-2.2.4-2.9 2.7-1.9 5.5.5 1.2 1.1 6.2 1.5 11.2.4 4.9 1.8 12.8 3.1 17.5 1.3 4.7 3.1 12.3 3.9 16.9 1.2 6.3 2.5 9.8 5.2 13.8 4 6 6.1 7.7 11.9 9.2 2.3.6 5.4 2.4 7 4.1 3.5 3.7 7.9 5 17 5 6.8.1 17 1.1 26.6 2.5 4.4.7 4.8.5 6.5-2 1.7-2.6 1.7-3 0-9.4-2.3-8.9-11.3-27.4-16.7-34.5-5.8-7.6-18.1-19.5-23.1-22.4-2.3-1.2-5.6-3.6-7.5-5.2-1.8-1.7-5.8-3.6-9.1-4.5-3.1-.8-7.9-2.7-10.7-4.1-5.4-2.7-11-4.2-13.7-3.6zM224.5 147.6c-22.3 2.2-23.9 2.5-31.4 5.8-4.2 1.9-10.6 4.2-14.3 5.1-6.3 1.6-7 2.1-12.2 8.3-4.4 5.2-5.8 7.7-6.7 12.1-.6 3.1-2.7 10.5-4.6 16.6-3.6 11.5-6.4 33.2-4.9 38.8 1 4 4.4 5 13.2 3.8 5.9-.9 9.7-2.3 19.8-7.5 27.5-14.2 44-33.8 54.2-64 3.9-11.4 4.2-14.6 1.6-16.9-2-1.8-8.3-2.7-14.7-2.1z"/></svg>